<?xml version="1.0" encoding="UTF-8" standalone="no"?>
<svg width="512" height="512" viewBox="0 0 512 512" xmlns="http://www.w3.org/2000/svg">
  <!-- Background -->
  <rect x="0" y="0" width="512" height="512" rx="64" fill="#1e3a8a" />
  
  <!-- Lighthouse base -->
  <rect x="196" y="352" width="120" height="80" fill="#f59e0b" />
  
  <!-- Lighthouse tower -->
  <rect x="226" y="160" width="60" height="192" fill="#f5f5f4" />
  
  <!-- Lighthouse top -->
  <polygon points="226,160 286,160 256,100" fill="#ef4444" />
  
  <!-- Light rays -->
  <polygon points="256,130 356,70 356,190" fill="#fef3c7" opacity="0.5" />
  <polygon points="256,130 156,70 156,190" fill="#fef3c7" opacity="0.5" />
  
  <!-- Book stack -->
  <rect x="166" y="382" width="180" height="20" rx="2" fill="#a78bfa" />
  <rect x="176" y="362" width="160" height="20" rx="2" fill="#60a5fa" />
  <rect x="186" y="342" width="140" height="20" rx="2" fill="#34d399" />
  
  <!-- Windows -->
  <rect x="246" y="180" width="20" height="20" rx="2" fill="#fef3c7" />
  <rect x="246" y="220" width="20" height="20" rx="2" fill="#fef3c7" />
  <rect x="246" y="260" width="20" height="20" rx="2" fill="#fef3c7" />
  <rect x="246" y="300" width="20" height="20" rx="2" fill="#fef3c7" />
  
  <!-- Light from top -->
  <circle cx="256" cy="130" r="10" fill="#fef3c7" />
</svg>
