<?xml version="1.0" encoding="UTF-8" standalone="no"?>
<svg xmlns="http://www.w3.org/2000/svg" viewBox="0 0 512 512" width="512" height="512">
  <!-- Simple open book icon for myGoodReads -->
  <rect width="512" height="512" fill="#ffffff" rx="50" ry="50"/>
  
  <!-- Book background -->
  <rect x="96" y="156" width="320" height="200" rx="10" ry="10" fill="#4a7c59"/>
  
  <!-- Book pages -->
  <path d="M256,156 L256,356 C200,336 120,346 96,356 L96,156 C120,146 200,136 256,156 Z" fill="#f5f5f5"/>
  <path d="M256,156 L256,356 C312,336 392,346 416,356 L416,156 C392,146 312,136 256,156 Z" fill="#ffffff"/>
  
  <!-- Page details -->
  <path d="M140,200 L220,190" stroke="#dddddd" stroke-width="3"/>
  <path d="M140,230 L220,220" stroke="#dddddd" stroke-width="3"/>
  <path d="M140,260 L220,250" stroke="#dddddd" stroke-width="3"/>
  <path d="M140,290 L220,280" stroke="#dddddd" stroke-width="3"/>
  
  <path d="M292,200 L372,190" stroke="#dddddd" stroke-width="3"/>
  <path d="M292,230 L372,220" stroke="#dddddd" stroke-width="3"/>
  <path d="M292,260 L372,250" stroke="#dddddd" stroke-width="3"/>
  <path d="M292,290 L372,280" stroke="#dddddd" stroke-width="3"/>
  
  <!-- Book binding -->
  <rect x="246" y="156" width="20" height="200" fill="#4a7c59"/>
</svg>
